<?xml version="1.0" encoding="utf-8"?>
<!-- Generator: Adobe Illustrator 26.2.1, SVG Export Plug-In . SVG Version: 6.00 Build 0)  -->
<svg version="1.1" id="图层_1" xmlns="http://www.w3.org/2000/svg" xmlns:xlink="http://www.w3.org/1999/xlink" x="0px" y="0px"
	 viewBox="0 0 692 725" style="enable-background:new 0 0 692 725;" xml:space="preserve">
<style type="text/css">
	.st0{fill:#DAE8FC;stroke:#6C8EBF;}
	.st1{fill:#FFE6CC;stroke:#D79B00;}
	.st2{fill:none;stroke:#666666;stroke-width:4;stroke-miterlimit:10;}
	.st3{fill:#F8CECC;stroke:#B85450;}
	.st4{fill:#E1D5E7;stroke:#9673A6;}
	.st5{font-family:'BitstreamVeraSansMonoNerdFontCompleteM-Roman';}
	.st6{font-size:12px;}
</style>
<g>
	<rect x="78.9" y="473.4" pointer-events="all" class="st0" width="40" height="40"/>
	<ellipse pointer-events="all" class="st1" cx="178.9" cy="443.4" rx="20" ry="20"/>
	<rect x="98.9" y="523.4" pointer-events="all" class="st0" width="40" height="40"/>
	<ellipse pointer-events="all" class="st1" cx="85.9" cy="393.4" rx="20" ry="20"/>
	<rect x="98.9" y="593.4" pointer-events="all" class="st0" width="40" height="40"/>
	<ellipse pointer-events="all" class="st1" cx="138.9" cy="403.4" rx="20" ry="20"/>
	<rect x="28.9" y="433.4" pointer-events="all" class="st0" width="40" height="40"/>
	<ellipse pointer-events="all" class="st1" cx="258.9" cy="543.4" rx="20" ry="20"/>
	<rect x="18.9" y="503.4" pointer-events="all" class="st0" width="40" height="40"/>
	<ellipse pointer-events="all" class="st1" cx="218.9" cy="403.4" rx="20" ry="20"/>
	<rect x="48.9" y="563.4" pointer-events="all" class="st0" width="40" height="40"/>
	<ellipse pointer-events="all" class="st1" cx="208.9" cy="503.4" rx="20" ry="20"/>
	<rect x="148.9" y="563.4" pointer-events="all" class="st0" width="40" height="40"/>
	<ellipse pointer-events="all" class="st1" cx="298.9" cy="503.4" rx="20" ry="20"/>
	<rect x="218.9" y="603.4" pointer-events="all" class="st0" width="40" height="40"/>
	<ellipse pointer-events="all" class="st1" cx="248.9" cy="453.4" rx="20" ry="20"/>
	<path pointer-events="stroke" class="st2" d="M58.9,373.4l210,280"/>
	<rect x="158.9" y="623.4" pointer-events="all" class="st0" width="40" height="40"/>
	<ellipse pointer-events="all" class="st1" cx="308.9" cy="573.4" rx="20" ry="20"/>
</g>
<g>
	<rect x="93.9" y="94.9" pointer-events="all" class="st0" width="40" height="40"/>
	<ellipse pointer-events="all" class="st1" cx="173.9" cy="114.9" rx="20" ry="20"/>
	<rect x="103.9" y="154.9" pointer-events="all" class="st0" width="40" height="40"/>
	<ellipse pointer-events="all" class="st3" cx="63.9" cy="44.9" rx="20" ry="20"/>
	<rect x="113.9" y="214.9" pointer-events="all" class="st0" width="40" height="40"/>
	<ellipse pointer-events="all" class="st1" cx="113.9" cy="64.9" rx="20" ry="20"/>
	<rect x="43.9" y="74.9" pointer-events="all" class="st0" width="40" height="40"/>
	<ellipse pointer-events="all" class="st1" cx="233.9" cy="204.9" rx="20" ry="20"/>
	<rect x="43.9" y="134.9" pointer-events="all" class="st0" width="40" height="40"/>
	<ellipse pointer-events="all" class="st1" cx="183.9" cy="64.9" rx="20" ry="20"/>
	<rect x="53.9" y="194.9" pointer-events="all" class="st0" width="40" height="40"/>
	<ellipse pointer-events="all" class="st1" cx="173.9" cy="164.9" rx="20" ry="20"/>
	<rect x="163.9" y="194.9" pointer-events="all" class="st0" width="40" height="40"/>
	<ellipse pointer-events="all" class="st1" cx="273.9" cy="164.9" rx="20" ry="20"/>
	<rect x="213.9" y="234.9" pointer-events="all" class="st4" width="40" height="40"/>
	<ellipse pointer-events="all" class="st1" cx="223.9" cy="134.9" rx="20" ry="20"/>
	<rect x="163.9" y="254.9" pointer-events="all" class="st0" width="40" height="40"/>
	<ellipse pointer-events="all" class="st1" cx="283.9" cy="224.9" rx="20" ry="20"/>
	<path pointer-events="stroke" class="st2" d="M63.9,14.9l190,290"/>
</g>
<g>
	<rect x="429.1" y="476.7" pointer-events="all" class="st0" width="40" height="40"/>
	<ellipse pointer-events="all" class="st1" cx="529.1" cy="446.7" rx="20" ry="20"/>
	<rect x="449.1" y="526.7" pointer-events="all" class="st0" width="40" height="40"/>
	<ellipse pointer-events="all" class="st3" cx="436.1" cy="396.7" rx="20" ry="20"/>
	<rect x="449.1" y="596.7" pointer-events="all" class="st0" width="40" height="40"/>
	<ellipse pointer-events="all" class="st1" cx="489.1" cy="406.7" rx="20" ry="20"/>
	<rect x="379.1" y="436.7" pointer-events="all" class="st0" width="40" height="40"/>
	<ellipse pointer-events="all" class="st1" cx="609.1" cy="546.7" rx="20" ry="20"/>
	<rect x="369.1" y="506.7" pointer-events="all" class="st0" width="40" height="40"/>
	<ellipse pointer-events="all" class="st1" cx="569.1" cy="406.7" rx="20" ry="20"/>
	<rect x="399.1" y="566.7" pointer-events="all" class="st0" width="40" height="40"/>
	<ellipse pointer-events="all" class="st1" cx="559.1" cy="506.7" rx="20" ry="20"/>
	<rect x="499.1" y="566.7" pointer-events="all" class="st0" width="40" height="40"/>
	<ellipse pointer-events="all" class="st1" cx="649.1" cy="506.7" rx="20" ry="20"/>
	<rect x="569.1" y="606.7" pointer-events="all" class="st4" width="40" height="40"/>
	<ellipse pointer-events="all" class="st1" cx="599.1" cy="456.7" rx="20" ry="20"/>
	<path pointer-events="stroke" class="st2" d="M409.1,374.6c33.3-20,68.3,25,105,135s71.7,158.3,105,145"/>
	<rect x="509.1" y="626.7" pointer-events="all" class="st0" width="40" height="40"/>
	<ellipse pointer-events="all" class="st1" cx="659.1" cy="576.7" rx="20" ry="20"/>
</g>
<g>
	<rect x="444.1" y="95.2" pointer-events="all" class="st0" width="40" height="40"/>
	<ellipse pointer-events="all" class="st1" cx="524.1" cy="115.2" rx="20" ry="20"/>
	<rect x="454.1" y="155.2" pointer-events="all" class="st0" width="40" height="40"/>
	<ellipse pointer-events="all" class="st3" cx="414.1" cy="45.2" rx="20" ry="20"/>
	<rect x="464.1" y="215.2" pointer-events="all" class="st0" width="40" height="40"/>
	<ellipse pointer-events="all" class="st3" cx="464.1" cy="65.2" rx="20" ry="20"/>
	<rect x="394.1" y="75.2" pointer-events="all" class="st0" width="40" height="40"/>
	<ellipse pointer-events="all" class="st1" cx="584.1" cy="205.2" rx="20" ry="20"/>
	<rect x="394.1" y="135.2" pointer-events="all" class="st0" width="40" height="40"/>
	<ellipse pointer-events="all" class="st1" cx="534.1" cy="65.2" rx="20" ry="20"/>
	<rect x="404.1" y="195.2" pointer-events="all" class="st0" width="40" height="40"/>
	<ellipse pointer-events="all" class="st1" cx="524.1" cy="165.2" rx="20" ry="20"/>
	<rect x="514.1" y="195.2" pointer-events="all" class="st4" width="40" height="40"/>
	<ellipse pointer-events="all" class="st1" cx="624.1" cy="165.2" rx="20" ry="20"/>
	<rect x="564.1" y="235.2" pointer-events="all" class="st4" width="40" height="40"/>
	<ellipse pointer-events="all" class="st1" cx="574.1" cy="135.2" rx="20" ry="20"/>
	<rect x="514.1" y="255.2" pointer-events="all" class="st0" width="40" height="40"/>
	<ellipse pointer-events="all" class="st1" cx="634.1" cy="225.2" rx="20" ry="20"/>
	<path pointer-events="stroke" class="st2" d="M414.1,15.2c46.7-6.7,73.3,30,80,110s43.3,140,110,180"/>
</g>
<text transform="matrix(1 0 0 1 11.3792 335.3173)" class="st5 st6">Original non-linear mapping of normal samples</text>
<text transform="matrix(1 0 0 1 361.5394 335.0473)" class="st5 st6">Original non-linear mapping of normal samples</text>
<text transform="matrix(1 0 0 1 11.9791 702.5059)" class="st5 st6">Imrpoved non-linear map</text>
<text transform="matrix(1 0 0 1 178.1791 702.5059)" class="st5 st6">p</text>
<text transform="matrix(1 0 0 1 184.1791 702.5059)" class="st5 st6">ing of normal samples</text>
<text transform="matrix(1 0 0 1 361.5387 702.5054)" class="st5 st6">Improved non-linear mapping of normal samples</text>
</svg>
