<?xml version="1.0" encoding="utf-8"?>
<!-- Generator: Adobe Illustrator 26.2.1, SVG Export Plug-In . SVG Version: 6.00 Build 0)  -->
<svg version="1.1" id="图层_1" xmlns="http://www.w3.org/2000/svg" xmlns:xlink="http://www.w3.org/1999/xlink" x="0px" y="0px"
	 viewBox="0 0 1184 717.5" style="enable-background:new 0 0 1184 717.5;" xml:space="preserve">
<style type="text/css">
	.st0{fill:#D5E8D4;stroke:#82B366;stroke-miterlimit:10;}
	.st1{fill:none;stroke:#000000;stroke-width:6;stroke-miterlimit:10;stroke-dasharray:6,6;}
	.st2{fill:#F8CECC;stroke:#B85450;stroke-miterlimit:10;}
	.st3{fill:none;stroke:#808080;stroke-miterlimit:10;}
	.st4{fill:#FFE6CC;stroke:#D79B00;stroke-miterlimit:10;}
	.st5{fill:#FFF2CC;stroke:#D6B656;stroke-miterlimit:10;}
	.st6{fill:#DAE8FC;stroke:#6C8EBF;stroke-miterlimit:10;}
	.st7{fill:#E1D5E7;stroke:#9673A6;stroke-miterlimit:10;}
	.st8{fill:#F5F5F5;stroke:#666666;stroke-miterlimit:10;}
	.st9{fill:#FFFFFF;stroke:#000000;stroke-miterlimit:10;}
	.st10{fill:#808080;stroke:#808080;stroke-miterlimit:10;}
	.st11{font-family:'BitstreamVeraSansMonoNerdFontCompleteM-Roman';}
	.st12{font-size:16px;}
	.st13{font-size:20px;}
</style>
<path pointer-events="all" class="st0" d="M130.5,394.3l20-40h50l-20,40H130.5z"/>
<path pointer-events="stroke" class="st1" d="M856.6,319.9v33.3"/>
<path pointer-events="stroke" class="st1" d="M856.6,264.7v30.8"/>
<path pointer-events="all" class="st2" d="M130.5,114.3l20-40h50l-20,40H130.5z"/>
<path pointer-events="all" class="st2" d="M180.5,114.3l20-40h50l-20,40H180.5z"/>
<path pointer-events="stroke" class="st3" d="M160.5,374.3L605.1,97.7"/>
<path pointer-events="all" class="st2" d="M230.5,114.3l20-40h50l-20,40H230.5z"/>
<path pointer-events="all" class="st4" d="M110.5,154.3l20-40h50l-20,40H110.5z"/>
<path pointer-events="all" class="st4" d="M160.5,154.3l20-40h50l-20,40H160.5z"/>
<path pointer-events="all" class="st4" d="M210.5,154.3l20-40h50l-20,40H210.5z"/>
<path pointer-events="all" class="st5" d="M90.5,194.3l20-40h50l-20,40H90.5z"/>
<path pointer-events="all" class="st5" d="M140.5,194.3l20-40h50l-20,40H140.5z"/>
<path pointer-events="all" class="st5" d="M190.5,194.3l20-40h50l-20,40H190.5z"/>
<path pointer-events="all" class="st0" d="M180.5,394.3l20-40h50l-20,40H180.5z"/>
<path pointer-events="all" class="st0" d="M230.5,394.3l20-40h50l-20,40H230.5z"/>
<path pointer-events="all" class="st6" d="M110.5,434.3l20-40h50l-20,40H110.5z"/>
<path pointer-events="all" class="st6" d="M160.5,434.3l20-40h50l-20,40H160.5z"/>
<path pointer-events="all" class="st6" d="M210.5,434.3l20-40h50l-20,40H210.5z"/>
<path pointer-events="all" class="st7" d="M90.5,474.3l20-40h50l-20,40H90.5z"/>
<path pointer-events="all" class="st7" d="M140.5,474.3l20-40h50l-20,40H140.5z"/>
<path pointer-events="all" class="st7" d="M190.5,474.3l20-40h50l-20,40H190.5z"/>
<path pointer-events="all" class="st8" d="M130.5,254.3l20-40h50l-20,40H130.5z"/>
<path pointer-events="all" class="st8" d="M180.5,254.3l20-40h50l-20,40H180.5z"/>
<path pointer-events="all" class="st8" d="M230.5,254.3l20-40h50l-20,40H230.5z"/>
<path pointer-events="all" class="st8" d="M110.5,294.3l20-40h50l-20,40H110.5z"/>
<path pointer-events="all" class="st8" d="M160.5,294.3l20-40h50l-20,40H160.5z"/>
<path pointer-events="all" class="st8" d="M210.5,294.3l20-40h50l-20,40H210.5z"/>
<path pointer-events="all" class="st8" d="M90.5,334.3l20-40h50l-20,40H90.5z"/>
<path pointer-events="all" class="st8" d="M140.5,334.3l20-40h50l-20,40H140.5z"/>
<path pointer-events="all" class="st8" d="M190.5,334.3l20-40h50l-20,40H190.5z"/>
<path pointer-events="stroke" class="st1" d="M200.5,264.3l0-70"/>
<path pointer-events="stroke" class="st1" d="M199.5,404.3l0-70"/>
<path pointer-events="all" class="st9" d="M570.5,474.3l20-40h50l-20,40H570.5z"/>
<path pointer-events="all" class="st9" d="M570.5,454.3l20-40h50l-20,40H570.5z"/>
<path pointer-events="all" class="st9" d="M570.5,154.3l20-40h50l-20,40H570.5z"/>
<path pointer-events="all" class="st9" d="M570.5,134.3l20-40h50l-20,40H570.5z"/>
<path pointer-events="all" class="st9" d="M570.5,434.3l20-40h50l-20,40H570.5z"/>
<path pointer-events="stroke" class="st1" d="M605,414.3l0-260"/>
<path pointer-events="stroke" class="st3" d="M230.5,454.3L605.9,98.7"/>
<path pointer-events="all" class="st10" d="M609.7,95.1l-2.7,7.3l-1.1-3.7l-3.7-1.3L609.7,95.1z"/>
<path pointer-events="all" class="st10" d="M609.5,94.9l-4.1,6.7l-0.4-3.9l-3.3-2L609.5,94.9z"/>
<path pointer-events="stroke" class="st3" d="M190.5,414.3L605.4,98.2"/>
<path pointer-events="all" class="st10" d="M609.6,95l-3.5,7l-0.7-3.8l-3.5-1.7L609.6,95z"/>
<path pointer-events="all" class="st2" d="M864.7,63.2l-16.1,16.1V54.8l16.1-16.1V63.2z"/>
<path pointer-events="all" class="st2" d="M864.7,87.3l-16.1,16.1V79l16.1-16.1V87.3z"/>
<path pointer-events="all" class="st2" d="M864.7,111.5l-16.1,16.1v-24.4l16.1-16.1V111.5z"/>
<path pointer-events="all" class="st4" d="M864.7,135.7l-16.1,16.1v-24.4l16.1-16.1V135.7z"/>
<path pointer-events="all" class="st4" d="M864.7,159.9L848.6,176v-24.4l16.1-16.1V159.9z"/>
<path pointer-events="all" class="st4" d="M864.7,184.1l-16.1,16.1v-24.4l16.1-16.1V184.1z"/>
<path pointer-events="all" class="st5" d="M864.7,208.2l-16.1,16.1v-24.4l16.1-16.1V208.2z"/>
<path pointer-events="all" class="st5" d="M864.7,232.4l-16.1,16.1v-24.4l16.1-16.1V232.4z"/>
<path pointer-events="all" class="st5" d="M864.7,256.6l-16.1,16.1v-24.4l16.1-16.1V256.6z"/>
<path pointer-events="all" class="st0" d="M864.7,369.6l-16.1,16.1v-24.4l16.1-16.1V369.6z"/>
<path pointer-events="all" class="st0" d="M864.7,393.7l-16.1,16.1v-24.4l16.1-16.1V393.7z"/>
<path pointer-events="all" class="st0" d="M864.7,417.9L848.6,434v-24.4l16.1-16.1V417.9z"/>
<path pointer-events="all" class="st6" d="M864.7,442.1l-16.1,16.1v-24.4l16.1-16.1V442.1z"/>
<path pointer-events="all" class="st6" d="M864.7,466.3l-16.1,16.1v-24.4l16.1-16.1V466.3z"/>
<path pointer-events="all" class="st6" d="M864.7,490.5l-16.1,16.1v-24.4l16.1-16.1V490.5z"/>
<path pointer-events="all" class="st7" d="M864.7,514.6l-16.1,16.1v-24.4l16.1-16.1V514.6z"/>
<path pointer-events="all" class="st7" d="M864.7,538.8l-16.1,16.1v-24.4l16.1-16.1V538.8z"/>
<path pointer-events="all" class="st7" d="M864.7,563l-16.1,16.1v-24.4l16.1-16.1V563z"/>
<path pointer-events="all" class="st8" d="M864.7,311.8l-16.1,16.1v-24.4l16.1-16.1V311.8z"/>
<path pointer-events="all" class="st9" d="M570.5,114.3l20-40h50l-20,40H570.5z"/>
<path pointer-events="stroke" class="st3" d="M160.5,94.3h443.6"/>
<path pointer-events="all" class="st10" d="M609.3,94.3l-7,3.5l1.8-3.5l-1.8-3.5L609.3,94.3z"/>
<path pointer-events="stroke" class="st3" d="M190.5,134.3l413.6-39.4"/>
<path pointer-events="all" class="st10" d="M609.4,94.4l-6.6,4.1l1.4-3.6l-2.1-3.3L609.4,94.4z"/>
<path pointer-events="stroke" class="st3" d="M220.5,174.3l383.7-78.7"/>
<path pointer-events="all" class="st10" d="M609.4,94.5l-6.2,4.8l1-3.8l-2.4-3.1L609.4,94.5z"/>
<path pointer-events="stroke" class="st1" d="M953.3,328.9v178.4"/>
<path pointer-events="stroke" class="st1" d="M953.3,128.7v175.7"/>
<path pointer-events="all" class="st9" d="M961.4,120.6l-16.1,16.1v-24.4l16.1-16.1V120.6z"/>
<path pointer-events="all" class="st9" d="M961.4,523.6l-16.1,16.1v-24.4l16.1-16.1V523.6z"/>
<path pointer-events="stroke" class="st3" d="M953.3,317.8L856.6,59"/>
<path pointer-events="stroke" class="st3" d="M953.3,317.8l-96.7-162.1"/>
<path pointer-events="stroke" class="st3" d="M953.3,317.8l-96.7-65.3"/>
<path pointer-events="stroke" class="st3" d="M953.3,317.8l-96.7,47.6"/>
<path pointer-events="stroke" class="st3" d="M953.3,317.8l-96.7,144.3"/>
<path pointer-events="stroke" class="st3" d="M953.3,317.8l-96.7,241.1"/>
<text transform="matrix(0.4116 -0.9114 0.9114 0.4116 76.0385 190.3452)" class="st11 st12">kernel height</text>
<text transform="matrix(1 0 0 1 165.5002 60.1286)" class="st11 st12">kernel width</text>
<text transform="matrix(6.123234e-17 -1 1 6.123234e-17 60.8812 369.291)" class="st11 st12">input channels</text>
<text transform="matrix(6.123234e-17 -1 1 6.123234e-17 573.8272 353.1718)" class="st11 st12">output channels</text>
<text transform="matrix(1 0 0 1 280.5001 617.9508)" class="st11 st13">Convolution layer</text>
<text transform="matrix(1 0 0 1 809.6956 617.9506)" class="st11 st13">Equivlent FC layer</text>
<path pointer-events="all" class="st9" d="M961.4,320.8l-16.1,16.1v-24.4l16.1-16.1V320.8z"/>
</svg>
