<?xml version="1.0" encoding="utf-8"?>
<!-- Generator: Adobe Illustrator 26.2.1, SVG Export Plug-In . SVG Version: 6.00 Build 0)  -->
<svg version="1.1" id="图层_1" xmlns="http://www.w3.org/2000/svg" xmlns:xlink="http://www.w3.org/1999/xlink" x="0px" y="0px"
	 viewBox="0 0 865.9 472.9" style="enable-background:new 0 0 865.9 472.9;" xml:space="preserve">
<style type="text/css">
	.st0{fill:#F8CECC;stroke:#B85450;}
	.st1{fill:#FFE6CC;stroke:#D79B00;}
	.st2{fill:#FFF2CC;stroke:#D6B656;}
	.st3{fill:#D5E8D4;stroke:#82B366;}
	.st4{fill:#DAE8FC;stroke:#6C8EBF;}
	.st5{fill:#E1D5E7;stroke:#9673A6;}
	.st6{fill:#FFFFFF;stroke:#000000;}
	.st7{fill:#F5F5F5;stroke:#666666;}
	.st8{fill:#6D8764;stroke:#3A5431;}
	.st9{fill:none;}
	.st10{fill:#9E9E9E;stroke:#808080;stroke-width:2;stroke-miterlimit:10;}
	.st11{fill:#647687;stroke:#314354;}
	.st12{fill:#76608A;stroke:#432D57;}
	.st13{fill:none;stroke:#000000;stroke-width:2;}
	.st14{fill:none;stroke:#000000;}
	.st15{font-family:'AdobeSongStd-Light-GBpc-EUC-H';}
	.st16{font-size:12px;}
	.st17{font-family:'BitstreamVeraSansMonoNerdFontCompleteM-Roman';}
	.st18{font-size:16px;}
</style>
<rect x="44.8" y="104.1" pointer-events="all" class="st0" width="20" height="20"/>
<rect x="64.8" y="104.1" pointer-events="all" class="st0" width="20" height="20"/>
<rect x="84.8" y="104.1" pointer-events="all" class="st0" width="20" height="20"/>
<rect x="44.8" y="124.1" pointer-events="all" class="st0" width="20" height="20"/>
<rect x="64.8" y="124.1" pointer-events="all" class="st0" width="20" height="20"/>
<rect x="84.8" y="124.1" pointer-events="all" class="st0" width="20" height="20"/>
<rect x="44.8" y="144.1" pointer-events="all" class="st0" width="20" height="20"/>
<rect x="64.8" y="144.1" pointer-events="all" class="st0" width="20" height="20"/>
<rect x="84.8" y="144.1" pointer-events="all" class="st0" width="20" height="20"/>
<rect x="124.8" y="104.1" pointer-events="all" class="st1" width="20" height="20"/>
<rect x="144.8" y="104.1" pointer-events="all" class="st1" width="20" height="20"/>
<rect x="164.8" y="104.1" pointer-events="all" class="st1" width="20" height="20"/>
<rect x="124.8" y="124.1" pointer-events="all" class="st1" width="20" height="20"/>
<rect x="144.8" y="124.1" pointer-events="all" class="st1" width="20" height="20"/>
<rect x="164.8" y="124.1" pointer-events="all" class="st1" width="20" height="20"/>
<rect x="124.8" y="144.1" pointer-events="all" class="st1" width="20" height="20"/>
<rect x="144.8" y="144.1" pointer-events="all" class="st1" width="20" height="20"/>
<rect x="164.8" y="144.1" pointer-events="all" class="st1" width="20" height="20"/>
<rect x="204.1" y="104.1" pointer-events="all" class="st2" width="20" height="20"/>
<rect x="224.1" y="104.1" pointer-events="all" class="st2" width="20" height="20"/>
<rect x="244.1" y="104.1" pointer-events="all" class="st2" width="20" height="20"/>
<rect x="204.1" y="124.1" pointer-events="all" class="st2" width="20" height="20"/>
<rect x="224.1" y="124.1" pointer-events="all" class="st2" width="20" height="20"/>
<rect x="244.1" y="124.1" pointer-events="all" class="st2" width="20" height="20"/>
<rect x="204.1" y="144.1" pointer-events="all" class="st2" width="20" height="20"/>
<rect x="224.1" y="144.1" pointer-events="all" class="st2" width="20" height="20"/>
<rect x="244.1" y="144.1" pointer-events="all" class="st2" width="20" height="20"/>
<rect x="54.6" y="114.1" pointer-events="all" class="st3" width="20" height="20"/>
<rect x="74.6" y="114.1" pointer-events="all" class="st3" width="20" height="20"/>
<rect x="94.6" y="114.1" pointer-events="all" class="st3" width="20" height="20"/>
<rect x="54.6" y="134.1" pointer-events="all" class="st3" width="20" height="20"/>
<rect x="74.6" y="134.1" pointer-events="all" class="st3" width="20" height="20"/>
<rect x="94.6" y="134.1" pointer-events="all" class="st3" width="20" height="20"/>
<rect x="54.6" y="154.1" pointer-events="all" class="st3" width="20" height="20"/>
<rect x="74.6" y="154.1" pointer-events="all" class="st3" width="20" height="20"/>
<rect x="94.6" y="154.1" pointer-events="all" class="st3" width="20" height="20"/>
<rect x="134.6" y="114.1" pointer-events="all" class="st4" width="20" height="20"/>
<rect x="154.6" y="114.1" pointer-events="all" class="st4" width="20" height="20"/>
<rect x="174.6" y="114.1" pointer-events="all" class="st4" width="20" height="20"/>
<rect x="134.6" y="134.1" pointer-events="all" class="st4" width="20" height="20"/>
<rect x="154.6" y="134.1" pointer-events="all" class="st4" width="20" height="20"/>
<rect x="174.6" y="134.1" pointer-events="all" class="st4" width="20" height="20"/>
<rect x="134.6" y="154.1" pointer-events="all" class="st4" width="20" height="20"/>
<rect x="154.6" y="154.1" pointer-events="all" class="st4" width="20" height="20"/>
<rect x="174.6" y="154.1" pointer-events="all" class="st4" width="20" height="20"/>
<rect x="213.9" y="114.1" pointer-events="all" class="st5" width="20" height="20"/>
<rect x="233.9" y="114.1" pointer-events="all" class="st5" width="20" height="20"/>
<rect x="253.9" y="114.1" pointer-events="all" class="st5" width="20" height="20"/>
<rect x="213.9" y="134.1" pointer-events="all" class="st5" width="20" height="20"/>
<rect x="233.9" y="134.1" pointer-events="all" class="st5" width="20" height="20"/>
<rect x="253.9" y="134.1" pointer-events="all" class="st5" width="20" height="20"/>
<rect x="213.9" y="154.1" pointer-events="all" class="st5" width="20" height="20"/>
<rect x="233.9" y="154.1" pointer-events="all" class="st5" width="20" height="20"/>
<rect x="253.9" y="154.1" pointer-events="all" class="st5" width="20" height="20"/>
<rect x="307.4" y="104.1" pointer-events="all" class="st6" width="20" height="20"/>
<rect x="327.4" y="104.1" pointer-events="all" class="st6" width="20" height="20"/>
<rect x="347.4" y="104.1" pointer-events="all" class="st6" width="20" height="20"/>
<rect x="307.4" y="124.1" pointer-events="all" class="st6" width="20" height="20"/>
<rect x="327.4" y="124.1" pointer-events="all" class="st6" width="20" height="20"/>
<rect x="347.4" y="124.1" pointer-events="all" class="st6" width="20" height="20"/>
<rect x="307.4" y="144.1" pointer-events="all" class="st6" width="20" height="20"/>
<rect x="327.4" y="144.1" pointer-events="all" class="st6" width="20" height="20"/>
<rect x="347.4" y="144.1" pointer-events="all" class="st6" width="20" height="20"/>
<rect x="317.4" y="114.1" pointer-events="all" class="st7" width="20" height="20"/>
<rect x="337.4" y="114.1" pointer-events="all" class="st7" width="20" height="20"/>
<rect x="357.4" y="114.1" pointer-events="all" class="st7" width="20" height="20"/>
<rect x="317.4" y="134.1" pointer-events="all" class="st7" width="20" height="20"/>
<rect x="337.4" y="134.1" pointer-events="all" class="st7" width="20" height="20"/>
<rect x="357.4" y="134.1" pointer-events="all" class="st7" width="20" height="20"/>
<rect x="317.4" y="154.1" pointer-events="all" class="st7" width="20" height="20"/>
<rect x="337.4" y="154.1" pointer-events="all" class="st7" width="20" height="20"/>
<rect x="357.4" y="154.1" pointer-events="all" class="st7" width="20" height="20"/>
<rect x="125.1" y="234.1" pointer-events="all" class="st8" width="20" height="20"/>
<rect x="145.1" y="234.1" pointer-events="all" class="st8" width="20" height="20"/>
<rect x="165.1" y="234.1" pointer-events="all" class="st8" width="20" height="20"/>
<rect x="125.1" y="254.1" pointer-events="all" class="st8" width="20" height="20"/>
<rect x="145.1" y="254.1" pointer-events="all" class="st8" width="20" height="20"/>
<rect x="165.1" y="254.1" pointer-events="all" class="st8" width="20" height="20"/>
<rect x="125.1" y="274.1" pointer-events="all" class="st8" width="20" height="20"/>
<rect x="145.1" y="274.1" pointer-events="all" class="st8" width="20" height="20"/>
<rect x="165.1" y="274.1" pointer-events="all" class="st8" width="20" height="20"/>
<rect x="285.1" y="134.1" pointer-events="all" class="st9" width="30" height="20"/>
<path pointer-events="all" class="st10" d="M168.7,184.1v26h6.2l-10,14.1l-10-14.1h6.2v-26h3.8H168.7z"/>
<rect x="134.9" y="244.1" pointer-events="all" class="st11" width="20" height="20"/>
<rect x="154.9" y="244.1" pointer-events="all" class="st11" width="20" height="20"/>
<rect x="174.9" y="244.1" pointer-events="all" class="st11" width="20" height="20"/>
<rect x="134.9" y="264.1" pointer-events="all" class="st11" width="20" height="20"/>
<rect x="154.9" y="264.1" pointer-events="all" class="st11" width="20" height="20"/>
<rect x="174.9" y="264.1" pointer-events="all" class="st11" width="20" height="20"/>
<rect x="134.9" y="284.1" pointer-events="all" class="st11" width="20" height="20"/>
<rect x="154.9" y="284.1" pointer-events="all" class="st11" width="20" height="20"/>
<rect x="174.9" y="284.1" pointer-events="all" class="st11" width="20" height="20"/>
<rect x="144.1" y="254.1" pointer-events="all" class="st12" width="20" height="20"/>
<rect x="164.1" y="254.1" pointer-events="all" class="st12" width="20" height="20"/>
<rect x="184.1" y="254.1" pointer-events="all" class="st12" width="20" height="20"/>
<rect x="144.1" y="274.1" pointer-events="all" class="st12" width="20" height="20"/>
<rect x="164.1" y="274.1" pointer-events="all" class="st12" width="20" height="20"/>
<rect x="184.1" y="274.1" pointer-events="all" class="st12" width="20" height="20"/>
<rect x="144.1" y="294.1" pointer-events="all" class="st12" width="20" height="20"/>
<rect x="164.1" y="294.1" pointer-events="all" class="st12" width="20" height="20"/>
<rect x="184.1" y="294.1" pointer-events="all" class="st12" width="20" height="20"/>
<rect x="667.9" y="49.1" pointer-events="none" class="st3" width="10" height="10"/>
<rect x="657.9" y="49.1" pointer-events="none" class="st0" width="10" height="10"/>
<rect x="647.9" y="49.1" pointer-events="none" class="st3" width="10" height="10"/>
<rect x="637.9" y="49.1" pointer-events="none" class="st0" width="10" height="10"/>
<rect x="607.9" y="49.1" pointer-events="none" class="st3" width="10" height="10"/>
<rect x="597.9" y="49.1" pointer-events="none" class="st0" width="10" height="10"/>
<rect x="587.9" y="49.1" pointer-events="none" class="st3" width="10" height="10"/>
<rect x="577.9" y="49.1" pointer-events="none" class="st0" width="10" height="10"/>
<rect x="667.9" y="59.1" pointer-events="none" class="st4" width="10" height="10"/>
<rect x="657.9" y="59.1" pointer-events="none" class="st1" width="10" height="10"/>
<rect x="647.9" y="59.1" pointer-events="none" class="st4" width="10" height="10"/>
<rect x="637.9" y="59.1" pointer-events="none" class="st1" width="10" height="10"/>
<rect x="607.9" y="59.1" pointer-events="none" class="st4" width="10" height="10"/>
<rect x="597.9" y="59.1" pointer-events="none" class="st1" width="10" height="10"/>
<rect x="587.9" y="59.1" pointer-events="none" class="st4" width="10" height="10"/>
<rect x="577.9" y="59.1" pointer-events="none" class="st1" width="10" height="10"/>
<rect x="667.9" y="69.1" pointer-events="none" class="st5" width="10" height="10"/>
<rect x="657.9" y="69.1" pointer-events="none" class="st2" width="10" height="10"/>
<rect x="647.9" y="69.1" pointer-events="none" class="st5" width="10" height="10"/>
<rect x="637.9" y="69.1" pointer-events="none" class="st2" width="10" height="10"/>
<rect x="607.9" y="69.1" pointer-events="none" class="st5" width="10" height="10"/>
<rect x="597.9" y="69.1" pointer-events="none" class="st2" width="10" height="10"/>
<rect x="587.9" y="69.1" pointer-events="none" class="st5" width="10" height="10"/>
<rect x="577.9" y="69.1" pointer-events="none" class="st2" width="10" height="10"/>
<rect x="687.9" y="79.1" pointer-events="none" class="st3" width="10" height="10"/>
<rect x="677.9" y="79.1" pointer-events="none" class="st0" width="10" height="10"/>
<rect x="667.9" y="79.1" pointer-events="none" class="st3" width="10" height="10"/>
<rect x="657.9" y="79.1" pointer-events="none" class="st0" width="10" height="10"/>
<rect x="687.9" y="89.1" pointer-events="none" class="st4" width="10" height="10"/>
<rect x="677.9" y="89.1" pointer-events="none" class="st1" width="10" height="10"/>
<rect x="667.9" y="89.1" pointer-events="none" class="st4" width="10" height="10"/>
<rect x="657.9" y="89.1" pointer-events="none" class="st1" width="10" height="10"/>
<rect x="687.9" y="99.1" pointer-events="none" class="st5" width="10" height="10"/>
<rect x="677.9" y="99.1" pointer-events="none" class="st2" width="10" height="10"/>
<rect x="667.9" y="99.1" pointer-events="none" class="st5" width="10" height="10"/>
<rect x="657.9" y="99.1" pointer-events="none" class="st2" width="10" height="10"/>
<rect x="647.9" y="79.1" pointer-events="none" class="st3" width="10" height="10"/>
<rect x="637.9" y="79.1" pointer-events="none" class="st0" width="10" height="10"/>
<rect x="627.9" y="79.1" pointer-events="none" class="st3" width="10" height="10"/>
<rect x="617.9" y="79.1" pointer-events="none" class="st0" width="10" height="10"/>
<rect x="647.9" y="89.1" pointer-events="none" class="st4" width="10" height="10"/>
<rect x="637.9" y="89.1" pointer-events="none" class="st1" width="10" height="10"/>
<rect x="627.9" y="89.1" pointer-events="none" class="st4" width="10" height="10"/>
<rect x="617.9" y="89.1" pointer-events="none" class="st1" width="10" height="10"/>
<rect x="647.9" y="99.1" pointer-events="none" class="st5" width="10" height="10"/>
<rect x="637.9" y="99.1" pointer-events="none" class="st2" width="10" height="10"/>
<rect x="627.9" y="99.1" pointer-events="none" class="st5" width="10" height="10"/>
<rect x="617.9" y="99.1" pointer-events="none" class="st2" width="10" height="10"/>
<rect x="607.9" y="79.1" pointer-events="none" class="st3" width="10" height="10"/>
<rect x="597.9" y="79.1" pointer-events="none" class="st0" width="10" height="10"/>
<rect x="587.9" y="79.1" pointer-events="none" class="st3" width="10" height="10"/>
<rect x="577.9" y="79.1" pointer-events="none" class="st0" width="10" height="10"/>
<rect x="607.9" y="89.1" pointer-events="none" class="st4" width="10" height="10"/>
<rect x="597.9" y="89.1" pointer-events="none" class="st1" width="10" height="10"/>
<rect x="587.9" y="89.1" pointer-events="none" class="st4" width="10" height="10"/>
<rect x="577.9" y="89.1" pointer-events="none" class="st1" width="10" height="10"/>
<rect x="607.9" y="99.1" pointer-events="none" class="st5" width="10" height="10"/>
<rect x="597.9" y="99.1" pointer-events="none" class="st2" width="10" height="10"/>
<rect x="587.9" y="99.1" pointer-events="none" class="st5" width="10" height="10"/>
<rect x="577.9" y="99.1" pointer-events="none" class="st2" width="10" height="10"/>
<rect x="687.9" y="109.1" pointer-events="none" class="st3" width="10" height="10"/>
<rect x="677.9" y="109.1" pointer-events="none" class="st0" width="10" height="10"/>
<rect x="667.9" y="109.1" pointer-events="none" class="st3" width="10" height="10"/>
<rect x="657.9" y="109.1" pointer-events="none" class="st0" width="10" height="10"/>
<rect x="627.9" y="109.1" pointer-events="none" class="st3" width="10" height="10"/>
<rect x="617.9" y="109.1" pointer-events="none" class="st0" width="10" height="10"/>
<rect x="607.9" y="109.1" pointer-events="none" class="st3" width="10" height="10"/>
<rect x="597.9" y="109.1" pointer-events="none" class="st0" width="10" height="10"/>
<rect x="687.9" y="119.1" pointer-events="none" class="st4" width="10" height="10"/>
<rect x="677.9" y="119.1" pointer-events="none" class="st1" width="10" height="10"/>
<rect x="667.9" y="119.1" pointer-events="none" class="st4" width="10" height="10"/>
<rect x="657.9" y="119.1" pointer-events="none" class="st1" width="10" height="10"/>
<rect x="627.9" y="119.1" pointer-events="none" class="st4" width="10" height="10"/>
<rect x="617.9" y="119.1" pointer-events="none" class="st1" width="10" height="10"/>
<rect x="607.9" y="119.1" pointer-events="none" class="st4" width="10" height="10"/>
<rect x="597.9" y="119.1" pointer-events="none" class="st1" width="10" height="10"/>
<rect x="687.9" y="129.1" pointer-events="none" class="st5" width="10" height="10"/>
<rect x="677.9" y="129.1" pointer-events="none" class="st2" width="10" height="10"/>
<rect x="667.9" y="129.1" pointer-events="none" class="st5" width="10" height="10"/>
<rect x="657.9" y="129.1" pointer-events="none" class="st2" width="10" height="10"/>
<rect x="627.9" y="129.1" pointer-events="none" class="st5" width="10" height="10"/>
<rect x="617.9" y="129.1" pointer-events="none" class="st2" width="10" height="10"/>
<rect x="607.9" y="129.1" pointer-events="none" class="st5" width="10" height="10"/>
<rect x="597.9" y="129.1" pointer-events="none" class="st2" width="10" height="10"/>
<rect x="607.8" y="139.1" pointer-events="none" class="st3" width="10" height="10"/>
<rect x="597.8" y="139.1" pointer-events="none" class="st0" width="10" height="10"/>
<rect x="587.8" y="139.1" pointer-events="none" class="st3" width="10" height="10"/>
<rect x="577.8" y="139.1" pointer-events="none" class="st0" width="10" height="10"/>
<rect x="607.8" y="149.1" pointer-events="none" class="st4" width="10" height="10"/>
<rect x="597.8" y="149.1" pointer-events="none" class="st1" width="10" height="10"/>
<rect x="587.8" y="149.1" pointer-events="none" class="st4" width="10" height="10"/>
<rect x="577.8" y="149.1" pointer-events="none" class="st1" width="10" height="10"/>
<rect x="607.8" y="159.1" pointer-events="none" class="st5" width="10" height="10"/>
<rect x="597.8" y="159.1" pointer-events="none" class="st2" width="10" height="10"/>
<rect x="587.8" y="159.1" pointer-events="none" class="st5" width="10" height="10"/>
<rect x="577.8" y="159.1" pointer-events="none" class="st2" width="10" height="10"/>
<rect x="627.8" y="169.1" pointer-events="none" class="st3" width="10" height="10"/>
<rect x="617.8" y="169.1" pointer-events="none" class="st0" width="10" height="10"/>
<rect x="607.8" y="169.1" pointer-events="none" class="st3" width="10" height="10"/>
<rect x="597.8" y="169.1" pointer-events="none" class="st0" width="10" height="10"/>
<rect x="627.8" y="179.1" pointer-events="none" class="st4" width="10" height="10"/>
<rect x="617.8" y="179.1" pointer-events="none" class="st1" width="10" height="10"/>
<rect x="607.8" y="179.1" pointer-events="none" class="st4" width="10" height="10"/>
<rect x="597.8" y="179.1" pointer-events="none" class="st1" width="10" height="10"/>
<rect x="627.8" y="189.1" pointer-events="none" class="st5" width="10" height="10"/>
<rect x="617.8" y="189.1" pointer-events="none" class="st2" width="10" height="10"/>
<rect x="607.8" y="189.1" pointer-events="none" class="st5" width="10" height="10"/>
<rect x="597.8" y="189.1" pointer-events="none" class="st2" width="10" height="10"/>
<rect x="587.8" y="169.1" pointer-events="none" class="st3" width="10" height="10"/>
<rect x="577.8" y="169.1" pointer-events="none" class="st0" width="10" height="10"/>
<rect x="587.8" y="179.1" pointer-events="none" class="st4" width="10" height="10"/>
<rect x="577.8" y="179.1" pointer-events="none" class="st1" width="10" height="10"/>
<rect x="587.8" y="189.1" pointer-events="none" class="st5" width="10" height="10"/>
<rect x="577.8" y="189.1" pointer-events="none" class="st2" width="10" height="10"/>
<rect x="627.8" y="199.1" pointer-events="none" class="st3" width="10" height="10"/>
<rect x="617.8" y="199.1" pointer-events="none" class="st0" width="10" height="10"/>
<rect x="607.8" y="199.1" pointer-events="none" class="st3" width="10" height="10"/>
<rect x="597.8" y="199.1" pointer-events="none" class="st0" width="10" height="10"/>
<rect x="627.8" y="209.1" pointer-events="none" class="st4" width="10" height="10"/>
<rect x="617.8" y="209.1" pointer-events="none" class="st1" width="10" height="10"/>
<rect x="607.8" y="209.1" pointer-events="none" class="st4" width="10" height="10"/>
<rect x="597.8" y="209.1" pointer-events="none" class="st1" width="10" height="10"/>
<rect x="627.8" y="219.1" pointer-events="none" class="st5" width="10" height="10"/>
<rect x="617.8" y="219.1" pointer-events="none" class="st2" width="10" height="10"/>
<rect x="607.8" y="219.1" pointer-events="none" class="st5" width="10" height="10"/>
<rect x="597.8" y="219.1" pointer-events="none" class="st2" width="10" height="10"/>
<rect x="667.8" y="139.1" pointer-events="none" class="st3" width="10" height="10"/>
<rect x="657.8" y="139.1" pointer-events="none" class="st0" width="10" height="10"/>
<rect x="647.8" y="139.1" pointer-events="none" class="st3" width="10" height="10"/>
<rect x="637.8" y="139.1" pointer-events="none" class="st0" width="10" height="10"/>
<rect x="667.8" y="149.1" pointer-events="none" class="st4" width="10" height="10"/>
<rect x="657.8" y="149.1" pointer-events="none" class="st1" width="10" height="10"/>
<rect x="647.8" y="149.1" pointer-events="none" class="st4" width="10" height="10"/>
<rect x="637.8" y="149.1" pointer-events="none" class="st1" width="10" height="10"/>
<rect x="667.8" y="159.1" pointer-events="none" class="st5" width="10" height="10"/>
<rect x="657.8" y="159.1" pointer-events="none" class="st2" width="10" height="10"/>
<rect x="647.8" y="159.1" pointer-events="none" class="st5" width="10" height="10"/>
<rect x="637.8" y="159.1" pointer-events="none" class="st2" width="10" height="10"/>
<rect x="687.8" y="169.1" pointer-events="none" class="st3" width="10" height="10"/>
<rect x="677.8" y="169.1" pointer-events="none" class="st0" width="10" height="10"/>
<rect x="667.8" y="169.1" pointer-events="none" class="st3" width="10" height="10"/>
<rect x="657.8" y="169.1" pointer-events="none" class="st0" width="10" height="10"/>
<rect x="687.8" y="179.1" pointer-events="none" class="st4" width="10" height="10"/>
<rect x="677.8" y="179.1" pointer-events="none" class="st1" width="10" height="10"/>
<rect x="667.8" y="179.1" pointer-events="none" class="st4" width="10" height="10"/>
<rect x="657.8" y="179.1" pointer-events="none" class="st1" width="10" height="10"/>
<rect x="687.8" y="189.1" pointer-events="none" class="st5" width="10" height="10"/>
<rect x="677.8" y="189.1" pointer-events="none" class="st2" width="10" height="10"/>
<rect x="667.8" y="189.1" pointer-events="none" class="st5" width="10" height="10"/>
<rect x="657.8" y="189.1" pointer-events="none" class="st2" width="10" height="10"/>
<rect x="647.8" y="169.1" pointer-events="none" class="st3" width="10" height="10"/>
<rect x="637.8" y="169.1" pointer-events="none" class="st0" width="10" height="10"/>
<rect x="647.8" y="179.1" pointer-events="none" class="st4" width="10" height="10"/>
<rect x="637.8" y="179.1" pointer-events="none" class="st1" width="10" height="10"/>
<rect x="647.8" y="189.1" pointer-events="none" class="st5" width="10" height="10"/>
<rect x="637.8" y="189.1" pointer-events="none" class="st2" width="10" height="10"/>
<rect x="687.8" y="199.1" pointer-events="none" class="st3" width="10" height="10"/>
<rect x="677.8" y="199.1" pointer-events="none" class="st0" width="10" height="10"/>
<rect x="667.8" y="199.1" pointer-events="none" class="st3" width="10" height="10"/>
<rect x="657.8" y="199.1" pointer-events="none" class="st0" width="10" height="10"/>
<rect x="687.8" y="209.1" pointer-events="none" class="st4" width="10" height="10"/>
<rect x="677.8" y="209.1" pointer-events="none" class="st1" width="10" height="10"/>
<rect x="667.8" y="209.1" pointer-events="none" class="st4" width="10" height="10"/>
<rect x="657.8" y="209.1" pointer-events="none" class="st1" width="10" height="10"/>
<rect x="687.8" y="219.1" pointer-events="none" class="st5" width="10" height="10"/>
<rect x="677.8" y="219.1" pointer-events="none" class="st2" width="10" height="10"/>
<rect x="667.8" y="219.1" pointer-events="none" class="st5" width="10" height="10"/>
<rect x="657.8" y="219.1" pointer-events="none" class="st2" width="10" height="10"/>
<rect x="727.8" y="139.1" pointer-events="none" class="st3" width="10" height="10"/>
<rect x="717.8" y="139.1" pointer-events="none" class="st0" width="10" height="10"/>
<rect x="707.8" y="139.1" pointer-events="none" class="st3" width="10" height="10"/>
<rect x="697.8" y="139.1" pointer-events="none" class="st0" width="10" height="10"/>
<rect x="727.8" y="149.1" pointer-events="none" class="st4" width="10" height="10"/>
<rect x="717.8" y="149.1" pointer-events="none" class="st1" width="10" height="10"/>
<rect x="707.8" y="149.1" pointer-events="none" class="st4" width="10" height="10"/>
<rect x="697.8" y="149.1" pointer-events="none" class="st1" width="10" height="10"/>
<rect x="727.8" y="159.1" pointer-events="none" class="st5" width="10" height="10"/>
<rect x="717.8" y="159.1" pointer-events="none" class="st2" width="10" height="10"/>
<rect x="707.8" y="159.1" pointer-events="none" class="st5" width="10" height="10"/>
<rect x="697.8" y="159.1" pointer-events="none" class="st2" width="10" height="10"/>
<rect x="747.8" y="169.1" pointer-events="none" class="st3" width="10" height="10"/>
<rect x="737.8" y="169.1" pointer-events="none" class="st0" width="10" height="10"/>
<rect x="727.8" y="169.1" pointer-events="none" class="st3" width="10" height="10"/>
<rect x="717.8" y="169.1" pointer-events="none" class="st0" width="10" height="10"/>
<rect x="747.8" y="179.1" pointer-events="none" class="st4" width="10" height="10"/>
<rect x="737.8" y="179.1" pointer-events="none" class="st1" width="10" height="10"/>
<rect x="727.8" y="179.1" pointer-events="none" class="st4" width="10" height="10"/>
<rect x="717.8" y="179.1" pointer-events="none" class="st1" width="10" height="10"/>
<rect x="747.8" y="189.1" pointer-events="none" class="st5" width="10" height="10"/>
<rect x="737.8" y="189.1" pointer-events="none" class="st2" width="10" height="10"/>
<rect x="727.8" y="189.1" pointer-events="none" class="st5" width="10" height="10"/>
<rect x="717.8" y="189.1" pointer-events="none" class="st2" width="10" height="10"/>
<rect x="707.8" y="169.1" pointer-events="none" class="st3" width="10" height="10"/>
<rect x="697.8" y="169.1" pointer-events="none" class="st0" width="10" height="10"/>
<rect x="707.8" y="179.1" pointer-events="none" class="st4" width="10" height="10"/>
<rect x="697.8" y="179.1" pointer-events="none" class="st1" width="10" height="10"/>
<rect x="707.8" y="189.1" pointer-events="none" class="st5" width="10" height="10"/>
<rect x="697.8" y="189.1" pointer-events="none" class="st2" width="10" height="10"/>
<rect x="747.8" y="199.1" pointer-events="none" class="st3" width="10" height="10"/>
<rect x="737.8" y="199.1" pointer-events="none" class="st0" width="10" height="10"/>
<rect x="727.8" y="199.1" pointer-events="none" class="st3" width="10" height="10"/>
<rect x="717.8" y="199.1" pointer-events="none" class="st0" width="10" height="10"/>
<rect x="747.8" y="209.1" pointer-events="none" class="st4" width="10" height="10"/>
<rect x="737.8" y="209.1" pointer-events="none" class="st1" width="10" height="10"/>
<rect x="727.8" y="209.1" pointer-events="none" class="st4" width="10" height="10"/>
<rect x="717.8" y="209.1" pointer-events="none" class="st1" width="10" height="10"/>
<rect x="747.8" y="219.1" pointer-events="none" class="st5" width="10" height="10"/>
<rect x="737.8" y="219.1" pointer-events="none" class="st2" width="10" height="10"/>
<rect x="727.8" y="219.1" pointer-events="none" class="st5" width="10" height="10"/>
<rect x="717.8" y="219.1" pointer-events="none" class="st2" width="10" height="10"/>
<rect x="727.8" y="229.1" pointer-events="none" class="st3" width="10" height="10"/>
<rect x="717.8" y="229.1" pointer-events="none" class="st0" width="10" height="10"/>
<rect x="707.8" y="229.1" pointer-events="none" class="st3" width="10" height="10"/>
<rect x="697.8" y="229.1" pointer-events="none" class="st0" width="10" height="10"/>
<rect x="667.8" y="229.1" pointer-events="none" class="st3" width="10" height="10"/>
<rect x="657.8" y="229.1" pointer-events="none" class="st0" width="10" height="10"/>
<rect x="647.8" y="229.1" pointer-events="none" class="st3" width="10" height="10"/>
<rect x="637.8" y="229.1" pointer-events="none" class="st0" width="10" height="10"/>
<rect x="727.8" y="239.1" pointer-events="none" class="st4" width="10" height="10"/>
<rect x="717.8" y="239.1" pointer-events="none" class="st1" width="10" height="10"/>
<rect x="707.8" y="239.1" pointer-events="none" class="st4" width="10" height="10"/>
<rect x="697.8" y="239.1" pointer-events="none" class="st1" width="10" height="10"/>
<rect x="667.8" y="239.1" pointer-events="none" class="st4" width="10" height="10"/>
<rect x="657.8" y="239.1" pointer-events="none" class="st1" width="10" height="10"/>
<rect x="647.8" y="239.1" pointer-events="none" class="st4" width="10" height="10"/>
<rect x="637.8" y="239.1" pointer-events="none" class="st1" width="10" height="10"/>
<rect x="727.8" y="249.1" pointer-events="none" class="st5" width="10" height="10"/>
<rect x="717.8" y="249.1" pointer-events="none" class="st2" width="10" height="10"/>
<rect x="707.8" y="249.1" pointer-events="none" class="st5" width="10" height="10"/>
<rect x="697.8" y="249.1" pointer-events="none" class="st2" width="10" height="10"/>
<rect x="667.8" y="249.1" pointer-events="none" class="st5" width="10" height="10"/>
<rect x="657.8" y="249.1" pointer-events="none" class="st2" width="10" height="10"/>
<rect x="647.8" y="249.1" pointer-events="none" class="st5" width="10" height="10"/>
<rect x="637.8" y="249.1" pointer-events="none" class="st2" width="10" height="10"/>
<rect x="747.8" y="259.1" pointer-events="none" class="st3" width="10" height="10"/>
<rect x="737.8" y="259.1" pointer-events="none" class="st0" width="10" height="10"/>
<rect x="727.8" y="259.1" pointer-events="none" class="st3" width="10" height="10"/>
<rect x="717.8" y="259.1" pointer-events="none" class="st0" width="10" height="10"/>
<rect x="747.8" y="269.1" pointer-events="none" class="st4" width="10" height="10"/>
<rect x="737.8" y="269.1" pointer-events="none" class="st1" width="10" height="10"/>
<rect x="727.8" y="269.1" pointer-events="none" class="st4" width="10" height="10"/>
<rect x="717.8" y="269.1" pointer-events="none" class="st1" width="10" height="10"/>
<rect x="747.8" y="279.1" pointer-events="none" class="st5" width="10" height="10"/>
<rect x="737.8" y="279.1" pointer-events="none" class="st2" width="10" height="10"/>
<rect x="727.8" y="279.1" pointer-events="none" class="st5" width="10" height="10"/>
<rect x="717.8" y="279.1" pointer-events="none" class="st2" width="10" height="10"/>
<rect x="707.8" y="259.1" pointer-events="none" class="st3" width="10" height="10"/>
<rect x="697.8" y="259.1" pointer-events="none" class="st0" width="10" height="10"/>
<rect x="687.8" y="259.1" pointer-events="none" class="st3" width="10" height="10"/>
<rect x="677.8" y="259.1" pointer-events="none" class="st0" width="10" height="10"/>
<rect x="707.8" y="269.1" pointer-events="none" class="st4" width="10" height="10"/>
<rect x="697.8" y="269.1" pointer-events="none" class="st1" width="10" height="10"/>
<rect x="687.8" y="269.1" pointer-events="none" class="st4" width="10" height="10"/>
<rect x="677.8" y="269.1" pointer-events="none" class="st1" width="10" height="10"/>
<rect x="707.8" y="279.1" pointer-events="none" class="st5" width="10" height="10"/>
<rect x="697.8" y="279.1" pointer-events="none" class="st2" width="10" height="10"/>
<rect x="687.8" y="279.1" pointer-events="none" class="st5" width="10" height="10"/>
<rect x="677.8" y="279.1" pointer-events="none" class="st2" width="10" height="10"/>
<rect x="667.8" y="259.1" pointer-events="none" class="st3" width="10" height="10"/>
<rect x="657.8" y="259.1" pointer-events="none" class="st0" width="10" height="10"/>
<rect x="647.8" y="259.1" pointer-events="none" class="st3" width="10" height="10"/>
<rect x="637.8" y="259.1" pointer-events="none" class="st0" width="10" height="10"/>
<rect x="667.8" y="269.1" pointer-events="none" class="st4" width="10" height="10"/>
<rect x="657.8" y="269.1" pointer-events="none" class="st1" width="10" height="10"/>
<rect x="647.8" y="269.1" pointer-events="none" class="st4" width="10" height="10"/>
<rect x="637.8" y="269.1" pointer-events="none" class="st1" width="10" height="10"/>
<rect x="667.8" y="279.1" pointer-events="none" class="st5" width="10" height="10"/>
<rect x="657.8" y="279.1" pointer-events="none" class="st2" width="10" height="10"/>
<rect x="647.8" y="279.1" pointer-events="none" class="st5" width="10" height="10"/>
<rect x="637.8" y="279.1" pointer-events="none" class="st2" width="10" height="10"/>
<rect x="747.8" y="289.1" pointer-events="none" class="st3" width="10" height="10"/>
<rect x="737.8" y="289.1" pointer-events="none" class="st0" width="10" height="10"/>
<rect x="727.8" y="289.1" pointer-events="none" class="st3" width="10" height="10"/>
<rect x="717.8" y="289.1" pointer-events="none" class="st0" width="10" height="10"/>
<rect x="687.8" y="289.1" pointer-events="none" class="st3" width="10" height="10"/>
<rect x="677.8" y="289.1" pointer-events="none" class="st0" width="10" height="10"/>
<rect x="667.8" y="289.1" pointer-events="none" class="st3" width="10" height="10"/>
<rect x="657.8" y="289.1" pointer-events="none" class="st0" width="10" height="10"/>
<rect x="747.8" y="299.1" pointer-events="none" class="st4" width="10" height="10"/>
<rect x="737.8" y="299.1" pointer-events="none" class="st1" width="10" height="10"/>
<rect x="727.8" y="299.1" pointer-events="none" class="st4" width="10" height="10"/>
<rect x="717.8" y="299.1" pointer-events="none" class="st1" width="10" height="10"/>
<rect x="687.8" y="299.1" pointer-events="none" class="st4" width="10" height="10"/>
<rect x="677.8" y="299.1" pointer-events="none" class="st1" width="10" height="10"/>
<rect x="667.8" y="299.1" pointer-events="none" class="st4" width="10" height="10"/>
<rect x="657.8" y="299.1" pointer-events="none" class="st1" width="10" height="10"/>
<rect x="747.8" y="309.1" pointer-events="none" class="st5" width="10" height="10"/>
<rect x="737.8" y="309.1" pointer-events="none" class="st2" width="10" height="10"/>
<rect x="727.8" y="309.1" pointer-events="none" class="st5" width="10" height="10"/>
<rect x="717.8" y="309.1" pointer-events="none" class="st2" width="10" height="10"/>
<rect x="687.8" y="309.1" pointer-events="none" class="st5" width="10" height="10"/>
<rect x="677.8" y="309.1" pointer-events="none" class="st2" width="10" height="10"/>
<rect x="667.8" y="309.1" pointer-events="none" class="st5" width="10" height="10"/>
<rect x="657.8" y="309.1" pointer-events="none" class="st2" width="10" height="10"/>
<rect x="577.9" y="49.1" pointer-events="none" class="st13" width="180" height="270"/>
<rect x="577.9" y="49.1" pointer-events="none" class="st14" width="60" height="90"/>
<rect x="637.9" y="49.1" pointer-events="none" class="st14" width="60" height="90"/>
<rect x="697.9" y="49.1" pointer-events="none" class="st14" width="60" height="90"/>
<rect x="577.9" y="139.1" pointer-events="none" class="st14" width="60" height="90"/>
<rect x="637.9" y="139.1" pointer-events="none" class="st14" width="60" height="90"/>
<rect x="697.9" y="139.1" pointer-events="none" class="st14" width="60" height="90"/>
<rect x="577.9" y="229.1" pointer-events="none" class="st14" width="60" height="90"/>
<rect x="637.9" y="229.1" pointer-events="none" class="st14" width="60" height="90"/>
<rect x="697.9" y="229.1" pointer-events="none" class="st14" width="60" height="90"/>
<rect x="812.8" y="264.1" pointer-events="none" class="st7" width="10" height="10"/>
<rect x="812.8" y="254.1" pointer-events="none" class="st6" width="10" height="10"/>
<rect x="812.8" y="244.1" pointer-events="none" class="st7" width="10" height="10"/>
<rect x="812.8" y="224.1" pointer-events="none" class="st7" width="10" height="10"/>
<rect x="812.8" y="234.1" pointer-events="none" class="st6" width="10" height="10"/>
<rect x="812.8" y="204.1" pointer-events="none" class="st7" width="10" height="10"/>
<rect x="812.8" y="214.1" pointer-events="none" class="st6" width="10" height="10"/>
<rect x="812.8" y="184.1" pointer-events="none" class="st7" width="10" height="10"/>
<rect x="812.8" y="194.1" pointer-events="none" class="st6" width="10" height="10"/>
<rect x="812.8" y="174.1" pointer-events="none" class="st6" width="10" height="10"/>
<rect x="812.8" y="164.1" pointer-events="none" class="st7" width="10" height="10"/>
<rect x="812.8" y="144.1" pointer-events="none" class="st7" width="10" height="10"/>
<rect x="812.8" y="154.1" pointer-events="none" class="st6" width="10" height="10"/>
<rect x="812.8" y="124.1" pointer-events="none" class="st7" width="10" height="10"/>
<rect x="812.8" y="134.1" pointer-events="none" class="st6" width="10" height="10"/>
<rect x="812.8" y="104.1" pointer-events="none" class="st7" width="10" height="10"/>
<rect x="812.8" y="114.1" pointer-events="none" class="st6" width="10" height="10"/>
<rect x="812.8" y="94.1" pointer-events="none" class="st6" width="10" height="10"/>
<rect x="500.8" y="309.1" pointer-events="none" class="st12" width="10" height="10"/>
<rect x="500.8" y="299.1" pointer-events="none" class="st11" width="10" height="10"/>
<rect x="500.8" y="289.1" pointer-events="none" class="st8" width="10" height="10"/>
<rect x="500.8" y="279.1" pointer-events="none" class="st12" width="10" height="10"/>
<rect x="500.8" y="269.1" pointer-events="none" class="st11" width="10" height="10"/>
<rect x="500.8" y="259.1" pointer-events="none" class="st8" width="10" height="10"/>
<rect x="500.8" y="249.1" pointer-events="none" class="st12" width="10" height="10"/>
<rect x="500.8" y="239.1" pointer-events="none" class="st11" width="10" height="10"/>
<rect x="500.8" y="229.1" pointer-events="none" class="st8" width="10" height="10"/>
<rect x="500.8" y="219.1" pointer-events="none" class="st12" width="10" height="10"/>
<rect x="500.8" y="209.1" pointer-events="none" class="st11" width="10" height="10"/>
<rect x="500.8" y="199.1" pointer-events="none" class="st8" width="10" height="10"/>
<rect x="500.8" y="189.1" pointer-events="none" class="st12" width="10" height="10"/>
<rect x="500.8" y="179.1" pointer-events="none" class="st11" width="10" height="10"/>
<rect x="500.8" y="169.1" pointer-events="none" class="st8" width="10" height="10"/>
<rect x="500.8" y="159.1" pointer-events="none" class="st12" width="10" height="10"/>
<rect x="500.8" y="149.1" pointer-events="none" class="st11" width="10" height="10"/>
<rect x="500.8" y="139.1" pointer-events="none" class="st8" width="10" height="10"/>
<rect x="500.8" y="129.1" pointer-events="none" class="st12" width="10" height="10"/>
<rect x="500.8" y="119.1" pointer-events="none" class="st11" width="10" height="10"/>
<rect x="500.8" y="109.1" pointer-events="none" class="st8" width="10" height="10"/>
<rect x="500.8" y="99.1" pointer-events="none" class="st12" width="10" height="10"/>
<rect x="500.8" y="89.1" pointer-events="none" class="st11" width="10" height="10"/>
<rect x="500.8" y="79.1" pointer-events="none" class="st8" width="10" height="10"/>
<rect x="500.8" y="69.1" pointer-events="none" class="st12" width="10" height="10"/>
<rect x="500.8" y="59.1" pointer-events="none" class="st11" width="10" height="10"/>
<rect x="500.8" y="49.1" pointer-events="none" class="st8" width="10" height="10"/>
<path pointer-events="none" class="st10" d="M564.8,187.9h-26v6.2l-14.1-10l14.1-10v6.2h26v3.8V187.9z"/>
<text transform="matrix(1 0 0 1 283.7765 147.3252)" class="st15 st16">★</text>
<text transform="matrix(1 0 0 1 778.117 189.1335)" class="st15 st16">●</text>
<text transform="matrix(6.123234e-17 -1 1 6.123234e-17 30.3867 189.1327)" class="st17 st16">input channels</text>
<text transform="matrix(1 0 0 1 104.6064 89.1335)" class="st17 st16">output channels</text>
<text transform="matrix(1 0 0 1 597.7718 36.6397)" class="st17 st16">sparse weight matrix</text>
<text transform="matrix(1 0 0 1 300.1069 94.1333)" class="st17 st16">input image</text>
<text transform="matrix(1 0 0 1 214.1162 284.1333)" class="st17 st16">output image</text>
<text transform="matrix(1 0 0 1 105.4102 373.7401)" class="st17 st18">Convolution operation</text>
<text transform="matrix(1 0 0 1 524.2821 373.7399)" class="st17 st18">Equivlent matrix multiplication</text>
</svg>
