<?xml version="1.0" encoding="utf-8"?>
<!-- Generator: Adobe Illustrator 26.2.1, SVG Export Plug-In . SVG Version: 6.00 Build 0)  -->
<svg version="1.1" id="图层_1" xmlns="http://www.w3.org/2000/svg" xmlns:xlink="http://www.w3.org/1999/xlink" x="0px" y="0px"
	 viewBox="0 0 1728 968" style="enable-background:new 0 0 1728 968;" xml:space="preserve">
<style type="text/css">
	.st0{opacity:0.67;fill:#A0A0A0;stroke:#000000;stroke-width:3.62;stroke-miterlimit:14.4801;enable-background:new    ;}
	.st1{opacity:0.67;fill:#E0E0E0;stroke:#000000;stroke-width:3.62;stroke-miterlimit:14.4801;enable-background:new    ;}
	.st2{fill-opacity:0;stroke:#000000;stroke-width:3.62;stroke-miterlimit:14.4801;stroke-opacity:0.67;}
	.st3{fill:none;stroke:#000000;stroke-width:1.81;stroke-miterlimit:14.4801;stroke-opacity:0.67;}
	.st4{font-family:'BitstreamVeraSansMonoNerdFontCompleteM-Bold';}
	.st5{font-size:24px;}
</style>
<g transform="translate(-2474.4737396896803,-1286.8309128854899) scale(3.620025851531625)">
	<rect id="_x30__x5F_0" x="736.7" y="465" class="st0" width="32" height="32"/>
	<rect id="_x30__x5F_1" x="739.7" y="468" class="st1" width="32" height="32"/>
	<rect id="_x30__x5F_2" x="742.7" y="471" class="st0" width="32" height="32"/>
	<rect id="_x31__x5F_0" x="814.7" y="468.5" class="st0" width="16" height="16"/>
	<rect id="_x31__x5F_1" x="817.7" y="471.5" class="st1" width="16" height="16"/>
	<rect id="_x31__x5F_2" x="820.7" y="474.5" class="st0" width="16" height="16"/>
	<rect id="_x31__x5F_3" x="823.7" y="477.5" class="st1" width="16" height="16"/>
	<rect id="_x31__x5F_4" x="826.7" y="480.5" class="st0" width="16" height="16"/>
	<rect id="_x31__x5F_5" x="829.7" y="483.5" class="st1" width="16" height="16"/>
	<rect id="_x32__x5F_0" x="871.7" y="458.5" class="st0" width="6" height="6"/>
	<rect id="_x32__x5F_1" x="874.7" y="461.5" class="st1" width="6" height="6"/>
	<rect id="_x32__x5F_2" x="877.7" y="464.5" class="st0" width="6" height="6"/>
	<rect id="_x32__x5F_3" x="880.7" y="467.5" class="st1" width="6" height="6"/>
	<rect id="_x32__x5F_4" x="883.7" y="470.5" class="st0" width="6" height="6"/>
	<rect id="_x32__x5F_5" x="886.7" y="473.5" class="st1" width="6" height="6"/>
	<rect id="_x32__x5F_6" x="889.7" y="476.5" class="st0" width="6" height="6"/>
	<rect id="_x32__x5F_7" x="892.7" y="479.5" class="st1" width="6" height="6"/>
	<rect id="_x32__x5F_8" x="895.7" y="482.5" class="st0" width="6" height="6"/>
	<rect id="_x32__x5F_9" x="898.7" y="485.5" class="st1" width="6" height="6"/>
	<rect id="_x32__x5F_10" x="901.7" y="488.5" class="st0" width="6" height="6"/>
	<rect id="_x32__x5F_11" x="904.7" y="491.5" class="st1" width="6" height="6"/>
	<rect id="_x32__x5F_12" x="907.7" y="494.5" class="st0" width="6" height="6"/>
	<rect id="_x32__x5F_13" x="910.7" y="497.5" class="st1" width="6" height="6"/>
	<rect id="_x32__x5F_14" x="913.7" y="500.5" class="st0" width="6" height="6"/>
	<rect id="_x32__x5F_15" x="916.7" y="503.5" class="st1" width="6" height="6"/>
	<rect id="conv_0" x="755.6" y="492.9" class="st2" width="5" height="5"/>
	<rect id="conv_1" x="835.8" y="487.8" class="st2" width="5" height="5"/>
	<line id="conv_0_00000180367146339596315580000007247533407823712428_" class="st3" x1="760.6" y1="497.9" x2="837.4" y2="496.5"/>
	<line id="conv_0_00000136402959762749503640000009059739065192235698_" class="st3" x1="760.6" y1="492.9" x2="837.4" y2="496.5"/>
	<line id="conv_1_00000092422625626691527810000005851536881759317930_" class="st3" x1="840.8" y1="492.8" x2="920" y2="505.9"/>
	<line id="conv_1_00000059298872319839627440000003461219772129072045_" class="st3" x1="840.8" y1="487.8" x2="920" y2="505.9"/>
	<polygon id="fc_0" class="st1" points="935.7,441.6 945.7,441.6 1030.6,526.4 1020.6,526.4 	"/>
	<polygon id="fc_1" class="st1" points="1032.6,454.3 1042.6,454.3 1102,513.7 1092,513.7 	"/>
	<polygon id="fc_2" class="st1" points="1110.5,480.5 1120.5,480.5 1127.6,487.5 1117.6,487.5 	"/>
	<line id="fc_0_00000093886129626951039440000015817434994488744861_" class="st3" x1="922.7" y1="509.5" x2="1020.6" y2="526.4"/>
	<line id="fc_0_00000106115233746674811960000006464477531464105604_" class="st3" x1="877.7" y1="458.5" x2="935.7" y2="441.6"/>
	<line id="fc_1_00000070095376845477034150000001920690649086011562_" class="st3" x1="1030.6" y1="526.4" x2="1092" y2="513.7"/>
	<line id="fc_1_00000093892868373412494160000015301420788237394307_" class="st3" x1="945.7" y1="441.6" x2="1032.6" y2="454.3"/>
	<line id="fc_2_00000080179748924572866410000010572985722870547125_" class="st3" x1="1102" y1="513.7" x2="1117.6" y2="487.5"/>
	<line id="fc_2_00000058557010329531526880000017332129692541129117_" class="st3" x1="1042.6" y1="454.3" x2="1110.5" y2="480.5"/>
</g>
<text transform="matrix(1 0 0 1 375.7822 650.4691)" class="st4 st5">Conv1</text>
<text transform="matrix(1 0 0 1 653.0508 650.4691)" class="st4 st5">Conv2</text>
<text transform="matrix(1 0 0 1 1007.0684 650.1332)" class="st4 st5">Fc1</text>
<text transform="matrix(1 0 0 1 1356.8105 651.2318)" class="st4 st5">Fc2</text>
<text transform="matrix(1 0 0 1 1543.376 650.1332)" class="st4 st5">Fc3</text>
<text transform="matrix(1 0 0 1 203.3347 295.9865)" class="st4 st5">3@32*32</text>
<text transform="matrix(1 0 0 1 474.8368 295.9865)" class="st4 st5">6@16*16</text>
<text transform="matrix(1 0 0 1 681.178 295.9865)" class="st4 st5">16@6*6</text>
<text transform="matrix(1 0 0 1 912.8594 296.0852)" class="st4 st5">120</text>
<text transform="matrix(1 0 0 1 1263.4695 296.1841)" class="st4 st5">84</text>
<text transform="matrix(1 0 0 1 1522.1259 295.9866)" class="st4 st5">10</text>
</svg>
